<svg width="101" height="101" viewBox="0 0 101 101" fill="none" xmlns="http://www.w3.org/2000/svg">
<path d="M95.875 58.792C95.875 63.2607 92.8438 67.1045 88.5 68.792C87 69.3857 85.2812 69.7295 83.5 69.7295H17.0625C15.5625 69.7295 14.0938 69.4482 12.7812 68.9482C8.3125 67.292 5.125 63.1045 5.125 58.1982C5.125 51.8232 10.4688 46.667 17.0625 46.667C17.5938 46.667 18.125 46.667 18.625 46.792C18.0313 44.7295 17.6875 42.5732 17.6875 40.292C17.6875 27.917 27.7188 17.8545 40.125 17.8545C51.25 17.8545 60.5 25.9482 62.25 36.6045C63.4375 36.167 64.7188 35.9795 66.0625 35.9795C72.6562 35.9795 78 41.292 78 47.8857C78 48.292 78 48.667 77.9375 49.042C79.625 48.3232 81.5 47.8857 83.5 47.8857C90.3438 47.8857 95.8438 52.792 95.8438 58.8545L95.875 58.792Z" fill="#86C232"/>
<path d="M73.125 70.6045H15.9375C14.375 70.6045 12.875 70.3232 11.5 69.792C6.875 68.0732 3.59375 63.7607 3.59375 58.667C3.59375 52.0732 9.125 46.7295 15.9375 46.7295C16.5 46.7295 17.0313 46.7607 17.5625 46.8545C16.9375 44.7295 16.5938 42.4795 16.5938 40.1357C16.5938 36.9482 17.8125 30.8545 21.0625 27.7607" fill="#86C232"/>
<path d="M73.125 70.6045H15.9375C14.375 70.6045 12.875 70.3232 11.5 69.792C6.875 68.0732 3.59375 63.7607 3.59375 58.667C3.59375 52.0732 9.125 46.7295 15.9375 46.7295C16.5 46.7295 17.0313 46.7607 17.5625 46.8545C16.9375 44.7295 16.5937 42.4795 16.5937 40.1357C16.5937 36.9482 17.8125 30.8545 21.0625 27.7607" stroke="black" stroke-linecap="round" stroke-linejoin="round"/>
<path d="M25.375 21.9482C29.3438 18.792 34.3438 16.917 39.8125 16.917C51.3125 16.917 60.875 25.292 62.6875 36.292C63.9062 35.8545 65.25 35.6357 66.625 35.6357C73.4375 35.6357 78.9688 41.1357 78.9688 47.9482C78.9688 48.3545 78.9375 48.7607 78.9063 49.1357C80.6563 48.3857 82.5938 47.9482 84.6563 47.9482C91.7188 47.9482 97.4375 53.0107 97.4375 59.292C97.4375 63.917 94.3125 67.8857 89.8125 69.6357C88.25 70.2607 86.5 70.6045 84.6563 70.6045H80.4375" fill="#86C232"/>
<path d="M25.375 21.9482C29.3438 18.792 34.3438 16.917 39.8125 16.917C51.3125 16.917 60.875 25.292 62.6875 36.292C63.9063 35.8545 65.25 35.6357 66.625 35.6357C73.4375 35.6357 78.9688 41.1357 78.9688 47.9482C78.9688 48.3545 78.9375 48.7607 78.9063 49.1357C80.6563 48.3857 82.5938 47.9482 84.6563 47.9482C91.7188 47.9482 97.4375 53.0107 97.4375 59.292C97.4375 63.917 94.3125 67.8857 89.8125 69.6357C88.25 70.2607 86.5 70.6045 84.6563 70.6045H80.4375" stroke="black" stroke-linecap="round" stroke-linejoin="round"/>
</svg>
