<svg width="101" height="101" viewBox="0 0 101 101" fill="none" xmlns="http://www.w3.org/2000/svg">
<path d="M60.719 20.292C52.3752 27.1045 50.094 37.6357 53.969 42.917C58.594 49.1982 68.2502 52.167 77.4065 42.9795C84.094 36.292 83.5315 22.9795 88.0627 18.417C93.5315 12.8857 69.4065 13.1982 60.719 20.292Z" fill="#86C232"/>
<path d="M43.1874 32.042C49.8124 37.9795 51.2811 46.7608 47.8749 50.9483C43.8436 55.9483 35.7499 58.0108 28.5311 50.1045C23.2811 44.3545 24.2499 33.3545 20.6874 29.4483C16.3749 24.6983 36.2811 25.8545 43.1874 32.0108V32.042Z" fill="#86C232"/>
<path d="M50.8438 85.9795C71.8478 85.9795 88.875 82.9994 88.875 79.3232C88.875 75.6471 71.8478 72.667 50.8438 72.667C29.8397 72.667 12.8125 75.6471 12.8125 79.3232C12.8125 82.9994 29.8397 85.9795 50.8438 85.9795Z" fill="#61892F"/>
<path d="M60.719 20.292C52.3752 27.1045 50.094 37.6358 53.969 42.917C58.594 49.1983 68.2502 52.167 77.4065 42.9795C84.094 36.292 83.5315 22.9795 88.0627 18.417C92.469 13.9795 77.8127 13.3233 67.344 16.8545" stroke="#231F20" stroke-miterlimit="10" stroke-linecap="round"/>
<path d="M43.1874 32.042C49.8124 37.9795 51.2812 46.7607 47.8749 50.9482C43.8437 55.9482 35.7499 58.0107 28.5312 50.1045C23.2812 44.3545 24.2499 33.3545 20.6874 29.4482C17.6249 26.0732 26.8124 25.667 34.8749 27.9482" stroke="#231F20" stroke-miterlimit="10" stroke-linecap="round"/>
<path d="M23.3125 83.8857C16.8125 82.6982 12.8438 81.0732 12.8438 79.292C12.8438 75.6045 29.875 72.6357 50.875 72.6357C71.875 72.6357 88.9063 75.6045 88.9063 79.292C88.9063 82.9795 71.875 85.9482 50.875 85.9482C43.4063 85.9482 36.4375 85.5732 30.5625 84.917" stroke="#231F20" stroke-miterlimit="10" stroke-linecap="round"/>
<path d="M50.25 56.667V77.9795" stroke="#231F20" stroke-width="0.8" stroke-linecap="round" stroke-linejoin="round"/>
<path d="M70.5313 30.8857C67.6875 32.1045 63.125 34.542 58.9375 39.167C52.7813 45.9482 50.8125 53.417 50.2812 56.667" stroke="#231F20" stroke-width="0.8" stroke-linecap="round" stroke-linejoin="round"/>
<path d="M34.875 36.417C36.9688 37.667 39.4063 39.417 41.8125 41.917C47.25 47.5732 49.375 53.8232 50.25 57.3232" stroke="#231F20" stroke-width="0.8" stroke-linecap="round" stroke-linejoin="round"/>
</svg>
