<?xml version="1.0" standalone="no"?>
<!DOCTYPE svg PUBLIC "-//W3C//DTD SVG 20010904//EN"
 "http://www.w3.org/TR/2001/REC-SVG-20010904/DTD/svg10.dtd">
<svg version="1.0" xmlns="http://www.w3.org/2000/svg"
 width="80.000000pt" height="68.000000pt" viewBox="0 0 80.000000 68.000000"
 preserveAspectRatio="xMidYMid meet">
<metadata>
Created by potrace 1.10, written by Peter Selinger 2001-2011
</metadata>
<g transform="translate(0.000000,68.000000) scale(0.100000,-0.100000)"
fill="#000000" stroke="none">
<path d="M242 480 c-105 -76 -105 -214 -1 -289 50 -37 59 -38 59 -8 0 16 -9
28 -25 35 -83 38 -86 181 -5 229 19 11 30 25 30 40 0 30 -9 29 -58 -7z"/>
<path d="M385 487 c-81 -46 -110 -158 -62 -242 41 -73 153 -108 225 -71 135
70 135 252 0 322 -41 21 -116 17 -163 -9z m156 -40 c89 -59 86 -172 -4 -227
-61 -38 -144 -14 -179 51 -35 66 -12 146 53 181 45 24 89 23 130 -5z"/>
</g>
</svg>
