<svg width="133" height="32" viewBox="0 0 133 32" fill="none" xmlns="http://www.w3.org/2000/svg">
<circle cx="12.5" cy="16" r="12" fill="#61892F"/>
<circle cx="12.4999" cy="16.0001" r="10.1232" fill="#61892F" stroke="white" stroke-width="0.56872"/>
<path d="M18.0799 12.678C16.639 13.3235 15.3299 14.2692 14.2506 15.4725C14.3614 15.9893 14.4469 16.5164 14.4985 17.0553C14.7225 19.3961 14.3419 21.654 13.4883 23.6783H15.7038C16.458 22.8321 17.0999 21.8605 17.5905 20.7723C18.7863 18.1199 18.8852 15.2535 18.0799 12.678Z" fill="white"/>
<path d="M8.99765 8.323C7.08539 10.9392 6.0884 14.2362 6.42122 17.7141C6.63114 19.908 7.34793 21.9301 8.44361 23.6784H12.2959C13.1496 21.654 13.5302 19.3962 13.3062 17.0554C12.9733 13.5774 11.3691 10.5294 8.99765 8.323Z" fill="white"/>
<path d="M14.3276 13.4236C15.2181 13.4236 15.9399 12.7071 15.9399 11.8231C15.9399 10.9392 15.2181 10.2227 14.3276 10.2227C13.4371 10.2227 12.7153 10.9392 12.7153 11.8231C12.7153 12.7071 13.4371 13.4236 14.3276 13.4236Z" fill="white"/>
<path d="M39.7949 8.78125V23H37.3633V8.78125H39.7949ZM44.2578 8.78125V10.7344H32.9395V8.78125H44.2578ZM47.7086 14.4453V23H45.3551V12.4336H47.6012L47.7086 14.4453ZM50.941 12.3652L50.9215 14.5527C50.7783 14.5267 50.622 14.5072 50.4527 14.4941C50.29 14.4811 50.1272 14.4746 49.9645 14.4746C49.5608 14.4746 49.206 14.5332 48.9 14.6504C48.594 14.7611 48.3368 14.9238 48.1285 15.1387C47.9267 15.347 47.7704 15.6009 47.6598 15.9004C47.5491 16.1999 47.484 16.5352 47.4645 16.9062L46.9273 16.9453C46.9273 16.2812 46.9924 15.666 47.1227 15.0996C47.2529 14.5332 47.4482 14.0352 47.7086 13.6055C47.9755 13.1758 48.3076 12.8405 48.7047 12.5996C49.1083 12.3587 49.5738 12.2383 50.1012 12.2383C50.2444 12.2383 50.3974 12.2513 50.5602 12.2773C50.7294 12.3034 50.8564 12.3327 50.941 12.3652ZM57.0285 23.1953C56.2473 23.1953 55.5409 23.0684 54.9094 22.8145C54.2844 22.554 53.7505 22.1927 53.3078 21.7305C52.8716 21.2682 52.5363 20.7246 52.302 20.0996C52.0676 19.4746 51.9504 18.8008 51.9504 18.0781V17.6875C51.9504 16.8607 52.0708 16.112 52.3117 15.4414C52.5526 14.7708 52.8879 14.1979 53.3176 13.7227C53.7473 13.2409 54.2551 12.873 54.841 12.6191C55.427 12.3652 56.0617 12.2383 56.7453 12.2383C57.5005 12.2383 58.1613 12.3652 58.7277 12.6191C59.2941 12.873 59.7629 13.2311 60.134 13.6934C60.5116 14.1491 60.7915 14.6927 60.9738 15.3242C61.1626 15.9557 61.257 16.6523 61.257 17.4141V18.4199H53.093V16.7305H58.9328V16.5449C58.9198 16.1217 58.8352 15.7246 58.6789 15.3535C58.5292 14.9824 58.298 14.6829 57.9855 14.4551C57.673 14.2272 57.2564 14.1133 56.7355 14.1133C56.3449 14.1133 55.9966 14.1979 55.6906 14.3672C55.3911 14.5299 55.1405 14.7676 54.9387 15.0801C54.7368 15.3926 54.5806 15.7702 54.4699 16.2129C54.3658 16.6491 54.3137 17.1406 54.3137 17.6875V18.0781C54.3137 18.5404 54.3755 18.9701 54.4992 19.3672C54.6294 19.7578 54.8182 20.0996 55.0656 20.3926C55.313 20.6855 55.6125 20.9167 55.9641 21.0859C56.3156 21.2487 56.716 21.3301 57.1652 21.3301C57.7316 21.3301 58.2362 21.2161 58.6789 20.9883C59.1216 20.7604 59.5057 20.4382 59.8312 20.0215L61.0715 21.2227C60.8436 21.5547 60.5474 21.8737 60.1828 22.1797C59.8182 22.4792 59.3723 22.7233 58.8449 22.9121C58.3241 23.1009 57.7186 23.1953 57.0285 23.1953ZM67.9012 23.1953C67.1199 23.1953 66.4135 23.0684 65.782 22.8145C65.157 22.554 64.6232 22.1927 64.1805 21.7305C63.7443 21.2682 63.409 20.7246 63.1746 20.0996C62.9402 19.4746 62.823 18.8008 62.823 18.0781V17.6875C62.823 16.8607 62.9435 16.112 63.1844 15.4414C63.4253 14.7708 63.7605 14.1979 64.1902 13.7227C64.6199 13.2409 65.1277 12.873 65.7137 12.6191C66.2996 12.3652 66.9344 12.2383 67.618 12.2383C68.3732 12.2383 69.034 12.3652 69.6004 12.6191C70.1668 12.873 70.6355 13.2311 71.0066 13.6934C71.3842 14.1491 71.6642 14.6927 71.8465 15.3242C72.0353 15.9557 72.1297 16.6523 72.1297 17.4141V18.4199H63.9656V16.7305H69.8055V16.5449C69.7924 16.1217 69.7078 15.7246 69.5516 15.3535C69.4018 14.9824 69.1707 14.6829 68.8582 14.4551C68.5457 14.2272 68.129 14.1133 67.6082 14.1133C67.2176 14.1133 66.8693 14.1979 66.5633 14.3672C66.2638 14.5299 66.0132 14.7676 65.8113 15.0801C65.6095 15.3926 65.4533 15.7702 65.3426 16.2129C65.2384 16.6491 65.1863 17.1406 65.1863 17.6875V18.0781C65.1863 18.5404 65.2482 18.9701 65.3719 19.3672C65.5021 19.7578 65.6909 20.0996 65.9383 20.3926C66.1857 20.6855 66.4852 20.9167 66.8367 21.0859C67.1883 21.2487 67.5887 21.3301 68.0379 21.3301C68.6043 21.3301 69.1089 21.2161 69.5516 20.9883C69.9943 20.7604 70.3784 20.4382 70.7039 20.0215L71.9441 21.2227C71.7163 21.5547 71.4201 21.8737 71.0555 22.1797C70.6909 22.4792 70.2449 22.7233 69.7176 22.9121C69.1967 23.1009 68.5913 23.1953 67.9012 23.1953ZM80.1996 8.78125V23H77.768V8.78125H80.1996ZM84.6625 8.78125V10.7344H73.3441V8.78125H84.6625ZM88.1133 14.4453V23H85.7598V12.4336H88.0059L88.1133 14.4453ZM91.3457 12.3652L91.3262 14.5527C91.1829 14.5267 91.0267 14.5072 90.8574 14.4941C90.6947 14.4811 90.5319 14.4746 90.3691 14.4746C89.9655 14.4746 89.6107 14.5332 89.3047 14.6504C88.9987 14.7611 88.7415 14.9238 88.5332 15.1387C88.3314 15.347 88.1751 15.6009 88.0645 15.9004C87.9538 16.1999 87.8887 16.5352 87.8691 16.9062L87.332 16.9453C87.332 16.2812 87.3971 15.666 87.5273 15.0996C87.6576 14.5332 87.8529 14.0352 88.1133 13.6055C88.3802 13.1758 88.7122 12.8405 89.1094 12.5996C89.513 12.3587 89.9785 12.2383 90.5059 12.2383C90.6491 12.2383 90.8021 12.2513 90.9648 12.2773C91.1341 12.3034 91.2611 12.3327 91.3457 12.3652ZM98.5758 20.8809V15.8418C98.5758 15.4642 98.5074 15.1387 98.3707 14.8652C98.234 14.5918 98.0257 14.3802 97.7457 14.2305C97.4723 14.0807 97.1272 14.0059 96.7105 14.0059C96.3264 14.0059 95.9944 14.071 95.7145 14.2012C95.4345 14.3314 95.2164 14.5072 95.0602 14.7285C94.9039 14.9499 94.8258 15.2005 94.8258 15.4805H92.482C92.482 15.0638 92.5829 14.6602 92.7848 14.2695C92.9866 13.8789 93.2796 13.5306 93.6637 13.2246C94.0478 12.9186 94.5068 12.6777 95.0406 12.502C95.5745 12.3262 96.1734 12.2383 96.8375 12.2383C97.6318 12.2383 98.3349 12.3717 98.9469 12.6387C99.5654 12.9056 100.05 13.3092 100.402 13.8496C100.76 14.3835 100.939 15.054 100.939 15.8613V20.5586C100.939 21.0404 100.972 21.4733 101.037 21.8574C101.108 22.235 101.209 22.5638 101.339 22.8438V23H98.9273C98.8167 22.7461 98.7288 22.4238 98.6637 22.0332C98.6051 21.6361 98.5758 21.252 98.5758 20.8809ZM98.9176 16.5742L98.9371 18.0293H97.2477C96.8115 18.0293 96.4273 18.0716 96.0953 18.1562C95.7633 18.2344 95.4866 18.3516 95.2652 18.5078C95.0439 18.6641 94.8779 18.8529 94.7672 19.0742C94.6565 19.2956 94.6012 19.5462 94.6012 19.8262C94.6012 20.1061 94.6663 20.3633 94.7965 20.5977C94.9267 20.8255 95.1155 21.0046 95.3629 21.1348C95.6168 21.265 95.9228 21.3301 96.2809 21.3301C96.7626 21.3301 97.1826 21.2324 97.5406 21.0371C97.9052 20.8353 98.1917 20.5911 98.4 20.3047C98.6083 20.0117 98.719 19.735 98.732 19.4746L99.4938 20.5195C99.4156 20.7865 99.2822 21.0729 99.0934 21.3789C98.9046 21.6849 98.6572 21.9779 98.3512 22.2578C98.0517 22.5312 97.6904 22.7559 97.2672 22.9316C96.8505 23.1074 96.3688 23.1953 95.8219 23.1953C95.1318 23.1953 94.5165 23.0586 93.9762 22.7852C93.4358 22.5052 93.0126 22.1309 92.7066 21.6621C92.4007 21.1868 92.2477 20.6497 92.2477 20.0508C92.2477 19.4909 92.3518 18.9961 92.5602 18.5664C92.775 18.1302 93.0875 17.7656 93.4977 17.4727C93.9143 17.1797 94.4221 16.9583 95.0211 16.8086C95.6201 16.6523 96.3036 16.5742 97.0719 16.5742H98.9176ZM109.995 20.8125V8H112.359V23H110.22L109.995 20.8125ZM103.12 17.834V17.6289C103.12 16.8281 103.215 16.099 103.404 15.4414C103.592 14.7773 103.866 14.2077 104.224 13.7324C104.582 13.2507 105.018 12.8828 105.532 12.6289C106.047 12.3685 106.626 12.2383 107.271 12.2383C107.909 12.2383 108.469 12.362 108.95 12.6094C109.432 12.8568 109.842 13.2116 110.181 13.6738C110.519 14.1296 110.79 14.6764 110.991 15.3145C111.193 15.946 111.336 16.6491 111.421 17.4238V18.0781C111.336 18.8333 111.193 19.5234 110.991 20.1484C110.79 20.7734 110.519 21.3138 110.181 21.7695C109.842 22.2253 109.429 22.5768 108.941 22.8242C108.459 23.0716 107.896 23.1953 107.251 23.1953C106.613 23.1953 106.037 23.0618 105.523 22.7949C105.015 22.528 104.582 22.1536 104.224 21.6719C103.866 21.1901 103.592 20.6237 103.404 19.9727C103.215 19.3151 103.12 18.6022 103.12 17.834ZM105.474 17.6289V17.834C105.474 18.3158 105.516 18.765 105.601 19.1816C105.692 19.5983 105.832 19.9661 106.021 20.2852C106.21 20.5977 106.454 20.8451 106.753 21.0273C107.059 21.2031 107.424 21.291 107.847 21.291C108.381 21.291 108.82 21.1738 109.165 20.9395C109.51 20.7051 109.78 20.3893 109.976 19.9922C110.178 19.5885 110.314 19.1393 110.386 18.6445V16.877C110.347 16.4928 110.265 16.1348 110.142 15.8027C110.025 15.4707 109.865 15.181 109.663 14.9336C109.461 14.6797 109.211 14.4844 108.911 14.3477C108.618 14.2044 108.27 14.1328 107.866 14.1328C107.437 14.1328 107.072 14.224 106.773 14.4062C106.473 14.5885 106.226 14.8392 106.03 15.1582C105.842 15.4772 105.702 15.8483 105.611 16.2715C105.519 16.6947 105.474 17.1471 105.474 17.6289ZM119.628 23.1953C118.846 23.1953 118.14 23.0684 117.509 22.8145C116.884 22.554 116.35 22.1927 115.907 21.7305C115.471 21.2682 115.136 20.7246 114.901 20.0996C114.667 19.4746 114.55 18.8008 114.55 18.0781V17.6875C114.55 16.8607 114.67 16.112 114.911 15.4414C115.152 14.7708 115.487 14.1979 115.917 13.7227C116.346 13.2409 116.854 12.873 117.44 12.6191C118.026 12.3652 118.661 12.2383 119.345 12.2383C120.1 12.2383 120.761 12.3652 121.327 12.6191C121.893 12.873 122.362 13.2311 122.733 13.6934C123.111 14.1491 123.391 14.6927 123.573 15.3242C123.762 15.9557 123.856 16.6523 123.856 17.4141V18.4199H115.692V16.7305H121.532V16.5449C121.519 16.1217 121.434 15.7246 121.278 15.3535C121.128 14.9824 120.897 14.6829 120.585 14.4551C120.272 14.2272 119.856 14.1133 119.335 14.1133C118.944 14.1133 118.596 14.1979 118.29 14.3672C117.99 14.5299 117.74 14.7676 117.538 15.0801C117.336 15.3926 117.18 15.7702 117.069 16.2129C116.965 16.6491 116.913 17.1406 116.913 17.6875V18.0781C116.913 18.5404 116.975 18.9701 117.098 19.3672C117.229 19.7578 117.417 20.0996 117.665 20.3926C117.912 20.6855 118.212 20.9167 118.563 21.0859C118.915 21.2487 119.315 21.3301 119.764 21.3301C120.331 21.3301 120.835 21.2161 121.278 20.9883C121.721 20.7604 122.105 20.4382 122.43 20.0215L123.671 21.2227C123.443 21.5547 123.147 21.8737 122.782 22.1797C122.417 22.4792 121.971 22.7233 121.444 22.9121C120.923 23.1009 120.318 23.1953 119.628 23.1953ZM128.205 14.4453V23H125.852V12.4336H128.098L128.205 14.4453ZM131.438 12.3652L131.418 14.5527C131.275 14.5267 131.119 14.5072 130.95 14.4941C130.787 14.4811 130.624 14.4746 130.461 14.4746C130.058 14.4746 129.703 14.5332 129.397 14.6504C129.091 14.7611 128.834 14.9238 128.625 15.1387C128.424 15.347 128.267 15.6009 128.157 15.9004C128.046 16.1999 127.981 16.5352 127.961 16.9062L127.424 16.9453C127.424 16.2812 127.489 15.666 127.62 15.0996C127.75 14.5332 127.945 14.0352 128.205 13.6055C128.472 13.1758 128.804 12.8405 129.202 12.5996C129.605 12.3587 130.071 12.2383 130.598 12.2383C130.741 12.2383 130.894 12.2513 131.057 12.2773C131.226 12.3034 131.353 12.3327 131.438 12.3652Z" fill="#61892F"/>
</svg>
