<svg width="101" height="101" viewBox="0 0 101 101" fill="none" xmlns="http://www.w3.org/2000/svg">
<path d="M83.0312 31.1045L68.7187 10.5107L62.8438 14.5732L74.0312 30.6357" fill="#61892F"/>
<path d="M74.0312 30.6357L62.8438 14.5732L58.7812 8.66699L27.1562 30.6357" fill="#61892F"/>
<path d="M64.1563 30.6357H47.8438C48.0625 26.292 51.5938 22.917 56 22.917C60.4063 22.917 63.9375 26.292 64.1563 30.6357Z" fill="#86C232"/>
<path d="M89.125 40.1045V79.0732C89.125 84.4482 84.8438 88.7295 79.4688 88.7295H21.5312C16.1562 88.7295 11.875 84.4482 11.875 79.0732V40.1045C11.875 34.792 16.1562 30.4482 21.5312 30.4482H79.4375C80.4688 30.4482 81.4375 30.6045 82.2813 30.917C86.1875 32.1045 89.0938 35.792 89.0938 40.1045H89.125Z" fill="#86C232"/>
<path d="M67 48.4795H89.125V70.6982H67C60.875 70.6982 55.9062 65.7295 55.9062 59.6045C55.9062 53.4795 60.875 48.5107 67 48.5107V48.4795Z" fill="#61892F"/>
<path d="M83.4688 30.4482L69.1562 9.82324L63.2812 13.917L74.4688 29.9482" stroke="#231F20" stroke-linecap="round" stroke-linejoin="round"/>
<path d="M40.9375 20.6982L27.5938 29.9482" stroke="#231F20" stroke-linecap="round" stroke-linejoin="round"/>
<path d="M74.4687 29.9482L63.2813 13.917L59.2188 8.01074L48.25 15.6045" stroke="#231F20" stroke-linecap="round" stroke-linejoin="round"/>
<path d="M64.5937 29.9482H48.2812C48.5 25.6045 52.0312 22.2295 56.4375 22.2295C60.8437 22.2295 64.375 25.6045 64.5937 29.9482Z" stroke="#231F20" stroke-width="0.5" stroke-miterlimit="10"/>
<path d="M64.5937 88.7295H22.0625C16.6875 88.7295 12.4062 84.4482 12.4062 79.0732V40.1045C12.4062 34.792 16.6875 30.4482 22.0625 30.4482H79.9687C81 30.4482 81.9687 30.6045 82.8125 30.917C86.7187 32.1045 89.625 35.792 89.625 40.1045V79.0732C89.625 84.4482 85.3437 88.7295 79.9687 88.7295H73.9375" stroke="#231F20" stroke-linecap="round" stroke-linejoin="round"/>
<path d="M67.5313 48.4795H89.6563V70.6982H67.5313C61.4063 70.6982 56.4375 65.7295 56.4375 59.6045C56.4375 53.4795 61.4063 48.5107 67.5313 48.5107V48.4795Z" stroke="#231F20" stroke-miterlimit="10"/>
</svg>
