<svg width="24" height="24" viewBox="0 0 24 24" fill="none" xmlns="http://www.w3.org/2000/svg">
<path d="M12 5.97499C15.79 5.97499 19.17 8.10499 20.82 11.475C20.23 12.695 19.4 13.745 18.41 14.595L19.82 16.005C21.21 14.775 22.31 13.235 23 11.475C21.27 7.08499 17 3.97499 12 3.97499C10.73 3.97499 9.51 4.17499 8.36 4.54499L10.01 6.19499C10.66 6.06499 11.32 5.97499 12 5.97499ZM10.93 7.11499L13 9.18499C13.57 9.43499 14.03 9.89499 14.28 10.465L16.35 12.535C16.43 12.195 16.49 11.835 16.49 11.465C16.5 8.98499 14.48 6.97499 12 6.97499C11.63 6.97499 11.28 7.02499 10.93 7.11499ZM2.01 3.84499L4.69 6.52499C3.06 7.80499 1.77 9.50499 1 11.475C2.73 15.865 7 18.975 12 18.975C13.52 18.975 14.98 18.685 16.32 18.155L19.74 21.575L21.15 20.165L3.42 2.42499L2.01 3.84499ZM9.51 11.345L12.12 13.955C12.08 13.965 12.04 13.975 12 13.975C10.62 13.975 9.5 12.855 9.5 11.475C9.5 11.425 9.51 11.395 9.51 11.345ZM6.11 7.94499L7.86 9.69499C7.63 10.245 7.5 10.845 7.5 11.475C7.5 13.955 9.52 15.975 12 15.975C12.63 15.975 13.23 15.845 13.77 15.615L14.75 16.595C13.87 16.835 12.95 16.975 12 16.975C8.21 16.975 4.83 14.845 3.18 11.475C3.88 10.045 4.9 8.86499 6.11 7.94499Z" fill="#222629" fill-opacity="0.56"/>
</svg>
