<?xml version="1.0" encoding="UTF-8"?>
<!DOCTYPE svg PUBLIC "-//W3C//DTD SVG 1.1//EN" "http://www.w3.org/Graphics/SVG/1.1/DTD/svg11.dtd">
<svg xmlns="http://www.w3.org/2000/svg" version="1.1" width="432px" height="432px" style="shape-rendering:geometricPrecision; text-rendering:geometricPrecision; image-rendering:optimizeQuality; fill-rule:evenodd; clip-rule:evenodd" xmlns:xlink="http://www.w3.org/1999/xlink">
<g><path style="opacity:1" fill="#658b34" d="M 427.5,204.5 C 428.671,234.805 424.004,264.138 413.5,292.5C 405.479,311.545 395.146,329.211 382.5,345.5C 352.685,382.626 314.685,407.292 268.5,419.5C 231.744,427.831 195.078,427.497 158.5,418.5C 126.048,408.112 97.0483,391.779 71.5,369.5C 53.7208,352.068 39.0541,332.401 27.5,310.5C 10.2195,275.246 2.55284,237.913 4.5,198.5C 14.5569,114.851 57.5569,55.0176 133.5,19C 205.649,-8.64353 273.982,-1.3102 338.5,41C 393.354,81.5258 423.021,136.026 427.5,204.5 Z"/></g>
<g><path style="opacity:0.82" fill="#d6d6d4" d="M 194.5,-0.5 C 208.5,-0.5 222.5,-0.5 236.5,-0.5C 322.042,11.2142 382.208,56.5476 417,135.5C 424.221,154.714 429.054,174.381 431.5,194.5C 431.5,206.167 431.5,217.833 431.5,229.5C 428.592,228.841 428.258,228.007 430.5,227C 428.872,219.592 427.872,212.092 427.5,204.5C 423.021,136.026 393.354,81.5258 338.5,41C 273.982,-1.3102 205.649,-8.64353 133.5,19C 57.5569,55.0176 14.5569,114.851 4.5,198.5C 3.16667,198.5 1.83333,198.5 0.5,198.5C 0.5,197.167 0.5,195.833 0.5,194.5C 9.80978,116.673 48.8098,59.1729 117.5,22C 142.003,10.1057 167.669,2.60573 194.5,-0.5 Z"/></g>
<g><path style="opacity:1" fill="#fbfbfb" d="M 269.5,143.5 C 282.615,156.689 295.615,169.856 308.5,183C 295.709,196.792 282.542,210.292 269,223.5C 268.5,213.506 268.334,203.506 268.5,193.5C 244.167,193.5 219.833,193.5 195.5,193.5C 195.5,186.833 195.5,180.167 195.5,173.5C 219.833,173.5 244.167,173.5 268.5,173.5C 268.173,163.319 268.506,153.319 269.5,143.5 Z"/></g>
<g><path style="opacity:1" fill="#bacca8" d="M 269.5,143.5 C 268.506,153.319 268.173,163.319 268.5,173.5C 244.167,173.5 219.833,173.5 195.5,173.5C 219.328,172.502 243.328,172.169 267.5,172.5C 267.168,162.478 267.501,152.478 268.5,142.5C 269.107,142.624 269.44,142.957 269.5,143.5 Z"/></g>
<g><path style="opacity:1" fill="#fbfbfa" d="M 163.5,204.5 C 164.494,214.319 164.827,224.319 164.5,234.5C 188.5,234.5 212.5,234.5 236.5,234.5C 236.5,241.5 236.5,248.5 236.5,255.5C 212.5,255.5 188.5,255.5 164.5,255.5C 164.666,265.506 164.5,275.506 164,285.5C 150.5,272 137,258.5 123.5,245C 137.035,231.632 150.369,218.132 163.5,204.5 Z"/></g>
<g><path style="opacity:0.887" fill="#c2c3c0" d="M 427.5,204.5 C 427.872,212.092 428.872,219.592 430.5,227C 428.258,228.007 428.592,228.841 431.5,229.5C 431.5,231.833 431.5,234.167 431.5,236.5C 428.827,258.854 423.161,280.521 414.5,301.5C 413.523,298.713 413.19,295.713 413.5,292.5C 424.004,264.138 428.671,234.805 427.5,204.5 Z"/></g>
<g><path style="opacity:1" fill="#c2c2c1" d="M -0.5,194.5 C -0.166667,194.5 0.166667,194.5 0.5,194.5C 0.5,195.833 0.5,197.167 0.5,198.5C 1.83333,198.5 3.16667,198.5 4.5,198.5C 2.55284,237.913 10.2195,275.246 27.5,310.5C 27.5858,311.496 27.2524,312.329 26.5,313C 29.2776,315.484 30.6109,318.651 30.5,322.5C 29.5,322.5 28.5,322.5 27.5,322.5C 12.3127,295.755 2.97939,267.088 -0.5,236.5C -0.5,222.5 -0.5,208.5 -0.5,194.5 Z"/></g>
<g><path style="opacity:1" fill="#b8b8b6" d="M 413.5,292.5 C 413.19,295.713 413.523,298.713 414.5,301.5C 406.34,320.51 395.673,337.843 382.5,353.5C 382.5,350.833 382.5,348.167 382.5,345.5C 395.146,329.211 405.479,311.545 413.5,292.5 Z"/></g>
<g><path style="opacity:1" fill="#b4b4b2" d="M 27.5,310.5 C 39.0541,332.401 53.7208,352.068 71.5,369.5C 71.5,371.167 71.5,372.833 71.5,374.5C 70.5,374.5 69.5,374.5 68.5,374.5C 51.7914,359.47 38.1248,342.137 27.5,322.5C 28.5,322.5 29.5,322.5 30.5,322.5C 30.6109,318.651 29.2776,315.484 26.5,313C 27.2524,312.329 27.5858,311.496 27.5,310.5 Z"/></g>
<g><path style="opacity:1" fill="#a5a5a4" d="M 71.5,369.5 C 97.0483,391.779 126.048,408.112 158.5,418.5C 159.755,420.641 161.422,421.307 163.5,420.5C 164.452,422.045 164.785,423.712 164.5,425.5C 127.876,416.859 95.8759,399.859 68.5,374.5C 69.5,374.5 70.5,374.5 71.5,374.5C 71.5,372.833 71.5,371.167 71.5,369.5 Z"/></g>
<g><path style="opacity:1" fill="#a6a6a4" d="M 382.5,345.5 C 382.5,348.167 382.5,350.833 382.5,353.5C 352.301,389.613 314.301,413.613 268.5,425.5C 268.5,423.5 268.5,421.5 268.5,419.5C 314.685,407.292 352.685,382.626 382.5,345.5 Z"/></g>
<g><path style="opacity:1" fill="#9c9d9b" d="M 158.5,418.5 C 195.078,427.497 231.744,427.831 268.5,419.5C 268.5,421.5 268.5,423.5 268.5,425.5C 257.793,427.949 247.127,429.949 236.5,431.5C 222.5,431.5 208.5,431.5 194.5,431.5C 184.381,430.146 174.381,428.146 164.5,425.5C 164.785,423.712 164.452,422.045 163.5,420.5C 161.422,421.307 159.755,420.641 158.5,418.5 Z"/></g>
</svg>
