<?xml version="1.0" encoding="UTF-8"?>
<svg id="Layer_1" data-name="Layer 1" xmlns="http://www.w3.org/2000/svg" viewBox="0 0 2029.5 372">
  <defs>
    <style>
      .cls-1 {
        fill: #6d8738;
        stroke-width: 0px;
      }
    </style>
  </defs>
  <path class="cls-1" d="M186.73,371.16C85.42,372.23-.78,287.2,1.62,181.91,3.8,85.77,81.41,1.93,186.16,1.31c100.5-.59,185.21,80.73,185.37,185.4.15,101.99-84.3,185.05-184.8,184.45ZM24.48,186.05c-.81,90.42,71.84,161.55,159.3,162.68,93.85,1.21,161.5-71.92,164.88-154.55,4-97.98-72.36-168.44-158.3-170.22C96.78,22.03,23.86,96.76,24.48,186.05Z"/>
  <path class="cls-1" d="M1699.19,276.35c-1.49,1.35-3.09,2.59-4.44,4.06-7.41,8.08-16.59,13.17-27.23,15.22-18.61,3.57-35.51.07-49.99-12.94-13.7-12.31-20.69-28.13-23.4-45.82-1.63-10.65-2.45-21.58-2.07-32.34.7-20.12,5.83-39.15,18.88-55.11,8.92-10.91,20.63-17.4,34.61-19.6,11.19-1.76,22.24-1.1,32.46,3.89,5.37,2.62,10.04,6.71,14.98,10.21,1.44,1.02,2.7,2.31,4.05,3.47.35-.16.69-.31,1.04-.47V63.62c1.31-.2,2.02-.4,2.73-.4,9.74-.02,19.49.04,29.23-.07,2.43-.03,3.5.75,3.23,3.2-.07.62,0,1.25,0,1.87,0,73.47,0,146.95,0,220.42q0,5.25-5.3,5.26c-7.37,0-14.74-.16-22.11.07-3.34.11-4.38-1.35-4.58-4.29-.29-4.21-.71-8.41-1.08-12.61l-1.02-.73ZM1698.32,213.07c0-10.86.08-21.73-.07-32.59-.03-2.14-.59-4.49-1.59-6.37-9.68-18.17-32.32-21.1-47.16-14.73-10.68,4.59-16.39,13.98-19.37,24.77-5.07,18.35-4.9,36.99-.87,55.45,2.03,9.31,6.37,17.71,14.39,23.69,7.23,5.38,15.49,6.45,24.09,6.01,12.62-.65,22.31-6.41,28.58-17.43,1.22-2.13,1.87-4.86,1.92-7.33.21-10.49.09-20.98.09-31.47Z"/>
  <path class="cls-1" d="M1562.18,293.91c-2.59,0-4.79,0-7,0-8.5,0-16.99-.06-25.49.03-2.21.02-3.47-.65-4.02-2.9-1.03-4.21-2.24-8.38-3.59-13.31-1.45,1.11-2.74,1.9-3.79,2.93-20.14,19.78-51.98,21.27-74,6.57-13.27-8.86-20.62-21.53-20.96-37.52-.27-12.97,3.53-24.97,12.92-34.34,8.48-8.47,19.24-12.97,30.79-15.79,15.42-3.76,31.11-3.55,46.8-3.56,7.53,0,7.74,0,7.46-7.53-.2-5.56-.46-11.23-1.72-16.61-2.31-9.9-9.87-14.51-19.15-16.61-7.04-1.59-14.19-1.36-21.05.8-9.32,2.93-16.34,8.31-17.74,18.92-.12.93-1.55,2.39-2.39,2.41-10.59.16-21.19.11-32.08.11-.1-7.66,2.43-14.17,6.28-20.16,9.77-15.21,24.51-23.05,41.62-26.55,15.99-3.27,32.03-2.71,47.43,3.21,19.49,7.49,31.28,21.66,32.89,42.65,1.18,15.4.66,30.94.79,46.41.12,14-.04,28,.18,41.99.13,8.62,1.65,17.05,4.74,25.15.38,1.01.6,2.09,1.07,3.72ZM1521.39,233.95c0-4.75-.03-9.49.02-14.24.02-1.91-.47-3.09-2.7-3.06-13.17.2-26.37-.8-39.35,2.78-15.13,4.17-22.84,14.57-21.15,30.04.91,8.32,4.94,14.79,13.15,17.88,14.77,5.55,28.34,2.81,40.68-6.51,6.69-5.06,10.93-11.5,9.42-20.52-.35-2.07-.05-4.24-.06-6.36Z"/>
  <path class="cls-1" d="M941.28,222.66h-5.18c-32.1,0-64.2,0-96.31,0q-6.07,0-5.47,6.04c1.4,14.48,7.92,26.19,19.84,34.4,9.15,6.3,19.61,7.72,30.68,6.54,9.82-1.04,18.66-4.12,26.35-10.22,3.2-2.54,5.97-5.63,9.04-8.57,5.82,5.48,11.51,10.84,17.3,16.29-3.84,6.31-8.83,11.29-14.58,15.44-16.98,12.26-36.02,15.92-56.61,13.72-18-1.93-33.6-8.69-46.23-21.71-10.98-11.32-17.43-25.16-19.89-40.58-3.09-19.43-2.07-38.73,4.93-57.36,3.34-8.89,8.11-16.94,14.44-24.2,10.41-11.94,23.37-19.33,38.72-22.03,21.06-3.7,40.86-.78,57.98,13.4,12.16,10.08,18.49,23.5,22.05,38.38,3.12,13.03,3.29,26.37,2.94,40.45ZM870.81,198.87c10.86,0,21.72-.06,32.58.04,2.93.03,4.24-1.07,3.88-3.96-.48-3.93-.65-7.96-1.63-11.77-2.15-8.29-5.37-16.17-12.74-21.29-9.03-6.27-19.11-6.93-29.59-4.77-6.69,1.38-12.48,4.54-16.73,9.74-6.57,8.05-9.94,17.56-11.74,27.79-.68,3.87.73,4.26,3.76,4.24,10.74-.06,21.47-.02,32.21-.03Z"/>
  <path class="cls-1" d="M1889.82,250.34c6.33,5.99,12.01,11.36,17.8,16.85-3.76,6.29-8.78,11.23-14.51,15.39-16.97,12.28-36.02,15.88-56.63,13.75-18.06-1.87-33.58-8.76-46.22-21.72-11.02-11.3-17.46-25.17-19.91-40.58-3.11-19.56-2.12-39.01,5.06-57.73,3.31-8.63,7.94-16.49,14.07-23.58,10.45-12.08,23.5-19.59,38.99-22.3,21.06-3.68,40.91-.81,57.98,13.45,9.54,7.97,15.54,18.15,19.52,29.81,5.37,15.74,5.68,31.96,5.51,48.69-1.81.1-3.38.27-4.95.27-32.49.02-64.97,0-97.46.01-5.38,0-5.18,0-4.72,5.4.99,11.48,5.41,21.44,13.26,29.73,5.79,6.11,13.13,9.91,21.41,11.37,12.49,2.21,24.66.78,35.8-5.46,4.46-2.5,8.2-6.31,12.16-9.66,1.12-.94,1.83-2.36,2.83-3.7ZM1840.75,198.86c10.86,0,21.71-.07,32.57.05,3.07.03,4.49-1.03,4.1-4.13-.47-3.69-.72-7.43-1.56-11.04-2.51-10.65-7.16-19.99-17.79-24.72-7.57-3.36-15.63-3.83-23.71-2.19-6.72,1.36-12.89,4.21-17.28,9.57-6.67,8.13-10.17,17.7-12.05,28.05-.74,4.09.72,4.46,3.92,4.44,10.61-.08,21.21-.03,31.82-.03Z"/>
  <path class="cls-1" d="M1088.59,251.22c5.65,5.63,11.18,11.16,16.98,16.95-7.19,9.19-15.79,17.01-26.88,21.96-12.09,5.39-24.76,7.41-37.85,6.73-29.06-1.52-51.57-14.07-64.93-40.52-8.3-16.44-9.72-34.2-8.14-52.42,1.11-12.82,3.89-25.06,9.91-36.44,10.85-20.52,27.6-33.61,50.53-37.38,19.22-3.16,37.81-.71,53.94,11.57,11.37,8.65,18.54,20.21,22.86,33.74,4.59,14.38,4.69,29.15,4.56,44.01-.03,3.64-2.12,3.24-4.39,3.24-31.73,0-63.46,0-95.18,0-7.72,0-7.81.01-6.96,7.67,1.16,10.35,5.3,19.56,12.51,26.92,10.34,10.57,23.28,13.94,37.91,12.38,10.12-1.08,19.02-4.63,26.91-10.84,3.01-2.37,5.67-5.2,8.22-7.57ZM1002.2,198.87c7.08,0,12.68,0,18.28,0,16.86,0,33.73-.09,50.59.07,3.51.03,4.74-1.11,4.32-4.5-.43-3.45-.37-6.98-1.05-10.38-1.52-7.56-4.37-14.71-10.21-19.9-9.75-8.67-21.44-9.82-33.58-6.72-12.81,3.27-19.91,12.52-23.79,24.57-1.69,5.24-2.9,10.64-4.56,16.86Z"/>
  <path class="cls-1" d="M677.39,75.45v28.53h-4.66c-19.73,0-39.47,0-59.2,0-4.82,0-4.84,0-4.84,4.99,0,59.72,0,119.45-.01,179.17,0,6.41.58,5.73-5.91,5.76-8.12.03-16.24,0-24.35,0q-5.53,0-5.54-5.39c0-55.85,0-111.7,0-167.55,0-4.12-.2-8.26.06-12.37.23-3.53-.84-4.74-4.56-4.7-19.98.18-39.97,0-59.95.16-3.45.03-4.57-.92-4.43-4.42.27-6.61.28-13.25,0-19.86-.15-3.65,1.03-4.62,4.63-4.61,54.95.11,109.91.07,164.86.08,1.22,0,2.43.12,3.9.2Z"/>
  <path class="cls-1" d="M1303.68,103.98c-1.98,0-3.33,0-4.68,0-19.86,0-39.73.11-59.59-.1-3.91-.04-4.79,1.16-4.78,4.86.1,59.86.07,119.72.07,179.58q0,5.58-5.73,5.58c-8.37,0-16.74,0-25.11,0-4.95,0-4.97-.01-4.97-4.84,0-28.24,0-56.49,0-84.73,0-31.74,0-63.48,0-95.23,0-5.12-.01-5.13-5.08-5.13-19.49,0-38.98,0-58.46,0-1.35,0-2.7,0-4.38,0-.12-1.53-.29-2.73-.29-3.93-.03-6.87.13-13.75-.08-20.62-.09-3.16.66-4.38,4.12-4.28,8.74.26,17.49.09,26.23.09,45.97,0,91.94,0,137.92,0q4.79,0,4.8,4.94c0,7.73,0,15.46,0,23.8Z"/>
  <path class="cls-1" d="M1358.17,150.97c.83-.94,1.78-1.79,2.48-2.82,8.87-13.08,21.11-19.6,36.98-19.05.87.03,1.76.01,2.61.15,7.17,1.18,7.07,1.19,6.94,8.31-.13,6.87-.02,13.74-.05,20.61,0,1.34-.12,2.68-.18,3.74-6.54,0-12.74-.31-18.9.07-11.65.71-21.48,5.26-27.96,15.34-1.51,2.35-2.42,5.53-2.44,8.34-.16,34.6-.16,69.2-.02,103.8.02,3.69-1.08,4.64-4.63,4.54-8.86-.24-17.73-.19-26.59-.02-3.02.06-3.75-.99-3.75-3.88.08-51.46.07-102.93,0-154.39,0-2.75.73-3.72,3.57-3.67,8.86.16,17.73.12,26.59.02,2.42-.03,3.25.77,3.28,3.22.07,5.06.44,10.12.69,15.19l1.37.51Z"/>
  <path class="cls-1" d="M731.46,293.88c-11.33,0-22.06.04-32.78-.09-.7,0-1.65-1.17-1.99-2-.35-.86-.11-1.97-.11-2.97,0-50.48,0-100.96,0-151.44q0-5.28,5.27-5.29c7.62,0,15.24,0,22.86,0,5.01,0,5.12.09,5.3,5.31.1,2.75,0,5.5.17,8.24.09,1.52.54,3.03,1.01,5.5,1.5-1.47,2.43-2.17,3.09-3.06,6.17-8.27,13.53-14.85,23.8-17.63,6.77-1.83,13.52-1.78,20.32-.41,2,.4,2.79,1.52,2.76,3.68-.12,8.5-.12,16.99,0,25.49.04,2.85-.78,3.38-3.74,3.12-11.72-1.04-23.46-1.36-33.97,5.36-7.52,4.81-12.21,10.95-12.11,20.7.33,33.48.13,66.97.13,100.46,0,1.47,0,2.95,0,5.02Z"/>
  <path class="cls-1" d="M35.05,186.43c.24-83.45,67.14-150.45,149.2-151.58,85.82-1.18,151.57,67.54,153.68,147.1,2.31,87.14-67.68,155.35-150.15,155.95-84.43.62-152.21-67.55-152.73-151.48ZM153.36,306.24c8.99,0,17.99-.15,26.97.08,3.09.08,4.52-1.18,5.52-3.78,11.55-30.16,16.88-61.23,14.59-93.61-1.54-21.76-5.81-42.84-13.73-63.14-11.55-29.61-28.46-55.67-51.82-77.41-2.27-2.11-3.58-1.93-5.28.53-8.91,12.81-16.45,26.37-22.55,40.74-9.32,21.95-14.86,44.87-16.27,68.62-1.01,17.04-.24,34.09,2.71,51.03,4.62,26.55,13.85,51.28,27.72,74.35,1.24,2.06,2.61,2.64,4.79,2.62,9.12-.07,18.23-.03,27.35-.03ZM200.83,306.25c10.41,0,19.67-.51,28.83.18,6.29.47,9.85-2.33,13.23-6.81,10.3-13.64,19.22-28.01,25.72-43.91,8.13-19.9,12.72-40.5,13.3-61.95.2-7.33.19-14.77-.79-22.02-1.54-11.41-3.83-22.73-6.13-34.02-.82-4.03-2.05-4.29-5.88-2.41-20.6,10.1-39.19,22.95-54.4,40.31-1.09,1.24-1.59,3.56-1.39,5.26,1.18,10.48,3.43,20.91,3.79,31.4.41,12.04-.3,24.17-1.37,36.18-1.45,16.4-5.66,32.25-11.45,47.66-1.16,3.08-2.14,6.23-3.46,10.13ZM214.72,147.24c14.87.91,25.71-12.11,26.18-24.5.62-16.07-12.14-26.43-24.59-26.9-16.69-.64-27.22,11.61-27.49,25.15-.3,14.91,11.29,26.79,25.9,26.26Z"/>
  <path class="cls-1" d="M2028.66,161.91c-5.83,0-11.03.01-16.22,0-9.51-.02-18.31,2.41-25.52,8.7-5.03,4.39-8.58,9.74-8.55,17.07.15,33.73.07,67.47.06,101.2q0,5.02-5.15,5.03c-8.49,0-16.99-.08-25.48.05-2.68.04-3.74-.65-3.73-3.55.07-51.6.06-103.2.02-154.8,0-2.46.58-3.61,3.32-3.57,8.74.14,17.49.13,26.23,0,2.37-.04,3.52.85,3.64,3.09.19,3.86.2,7.73.46,11.59.08,1.14.74,2.24,1.14,3.35,1.03-.72,2.33-1.23,3.04-2.19,9.25-12.57,21.23-19.65,37.23-18.79.12,0,.25,0,.37,0,8.46.25,9.14.94,9.14,9.34v23.47Z"/>
</svg>